<?xml version="1.0" encoding="iso-8859-1"?>
<!-- Generator: Adobe Illustrator 19.0.0, SVG Export Plug-In . SVG Version: 6.00 Build 0)  -->
<svg version="1.1" id="Capa_1" xmlns="http://www.w3.org/2000/svg" xmlns:xlink="http://www.w3.org/1999/xlink" x="0px" y="0px"
	 viewBox="0 0 512 512" style="enable-background:new 0 0 512 512;" xml:space="preserve">
<g>
	<g>
		<path d="M121,226c-16.538,0-30,13.462-30,30c0,16.538,13.462,30,30,30s30-13.462,30-30C151,239.462,137.538,226,121,226z"/>
	</g>
</g>
<g>
	<g>
		<path d="M241,106c-16.538,0-30,13.462-30,30c0,16.538,13.462,30,30,30c16.538,0,30-13.462,30-30C271,119.462,257.538,106,241,106z
			"/>
	</g>
</g>
<g>
	<g>
		<path d="M241,346c-16.538,0-30,13.462-30,30c0,16.538,13.462,30,30,30c16.538,0,30-13.462,30-30C271,359.462,257.538,346,241,346z
			"/>
	</g>
</g>
<g>
	<g>
		<path d="M241,16C108.666,16,0,123.666,0,256s108.666,240,241,240s240-107.666,240-240S373.334,16,241,16z M241,76
			c33.091,0,60,26.909,60,60s-26.909,60-60,60s-60-26.909-60-60S207.909,76,241,76z M271,256c0,16.538-13.462,30-30,30
			c-16.538,0-30-13.462-30-30c0-16.538,13.462-30,30-30C257.538,226,271,239.462,271,256z M121,316c-33.091,0-60-26.909-60-60
			s26.909-60,60-60s60,26.909,60,60S154.091,316,121,316z M241,436c-33.091,0-60-26.909-60-60s26.909-60,60-60s60,26.909,60,60
			S274.091,436,241,436z M361,316c-33.091,0-60-26.909-60-60s26.909-60,60-60s60,26.909,60,60S394.091,316,361,316z"/>
	</g>
</g>
<g>
	<g>
		<path d="M361,226c-16.538,0-30,13.462-30,30c0,16.538,13.462,30,30,30c16.538,0,30-13.462,30-30C391,239.462,377.538,226,361,226z
			"/>
	</g>
</g>
<g>
	<g>
		<path d="M497,376h-13.493c-25.703,51.509-68.251,93.657-119.383,120H497c8.291,0,15-6.709,15-15v-90
			C512,382.709,505.291,376,497,376z"/>
	</g>
</g>
<g>
</g>
<g>
</g>
<g>
</g>
<g>
</g>
<g>
</g>
<g>
</g>
<g>
</g>
<g>
</g>
<g>
</g>
<g>
</g>
<g>
</g>
<g>
</g>
<g>
</g>
<g>
</g>
<g>
</g>
</svg>
